<svg width="57" height="57" viewBox="0 0 57 57" fill="none" xmlns="http://www.w3.org/2000/svg">
<path d="M28.5 43.2488C28.1868 43.2443 27.888 43.1162 27.6688 42.8925L14.1313 29.355C14.02 29.2446 13.9316 29.1133 13.8714 28.9686C13.8111 28.8239 13.78 28.6686 13.78 28.5119C13.78 28.3551 13.8111 28.1999 13.8714 28.0552C13.9316 27.9105 14.02 27.7791 14.1313 27.6688L34.0575 7.48125C34.157 7.35907 34.2845 7.26282 34.4293 7.20077C34.5741 7.13872 34.7318 7.11272 34.8888 7.125H48.545C48.8581 7.13108 49.1566 7.25815 49.378 7.47954C49.5994 7.70094 49.7265 7.99946 49.7325 8.3125L49.875 21.8263C49.8788 21.9858 49.849 22.1443 49.7877 22.2916C49.7263 22.4388 49.6347 22.5716 49.5188 22.6813L29.3313 42.8925C29.1106 43.1141 28.8127 43.2418 28.5 43.2488V43.2488ZM16.625 28.5L28.5 40.375L47.5 21.375L47.3575 9.5H35.4825L16.625 28.5Z" fill="#95E1D3"/>
<path d="M35.1263 49.875C34.8173 49.872 34.5208 49.7534 34.295 49.5425L7.48127 22.7288C7.36996 22.6184 7.28162 22.487 7.22133 22.3423C7.16104 22.1976 7.13 22.0424 7.13 21.8856C7.13 21.7289 7.16104 21.5737 7.22133 21.4289C7.28162 21.2842 7.36996 21.1529 7.48127 21.0425C7.58788 20.9289 7.71665 20.8384 7.85961 20.7765C8.00258 20.7146 8.15672 20.6826 8.31252 20.6826C8.46831 20.6826 8.62245 20.7146 8.76542 20.7765C8.90838 20.8384 9.03715 20.9289 9.14376 21.0425L35.9813 47.8563C36.2004 48.0822 36.3229 48.3846 36.3229 48.6994C36.3229 49.0141 36.2004 49.3165 35.9813 49.5425C35.747 49.755 35.4425 49.8734 35.1263 49.875Z" fill="#95E1D3"/>
<path d="M16.625 49.7325C16.3041 49.7317 15.9965 49.6036 15.77 49.3763L7.52875 41.2537C7.40471 41.1429 7.30484 41.0076 7.23537 40.8564C7.16591 40.7052 7.12834 40.5413 7.125 40.375C7.125 39.7337 7.125 39.6387 16.625 30.305C16.7354 30.1937 16.8667 30.1054 17.0114 30.0451C17.1561 29.9848 17.3114 29.9537 17.4681 29.9537C17.6249 29.9537 17.7801 29.9848 17.9248 30.0451C18.0695 30.1054 18.2009 30.1937 18.3113 30.305C18.5303 30.531 18.6529 30.8334 18.6529 31.1481C18.6529 31.4629 18.5303 31.7653 18.3113 31.9912C15.7462 34.6512 11.6375 38.7125 10.0225 40.375L16.625 46.8587L25.0087 38.4512C25.2324 38.2276 25.5356 38.102 25.8519 38.102C26.1681 38.102 26.4714 38.2276 26.695 38.4512C26.9186 38.6749 27.0442 38.9781 27.0442 39.2944C27.0442 39.6106 26.9186 39.9139 26.695 40.1375L17.3375 49.3763C17.1481 49.5735 16.8964 49.6993 16.625 49.7325V49.7325Z" fill="#95E1D3"/>
<path d="M28.4999 29.6875C28.3442 29.6894 28.1898 29.6587 28.0466 29.5973C27.9035 29.536 27.7747 29.4453 27.6687 29.3312C27.5551 29.2246 27.4646 29.0959 27.4027 28.9529C27.3408 28.8099 27.3088 28.6558 27.3088 28.5C27.3088 28.3442 27.3408 28.1901 27.4027 28.0471C27.4646 27.9041 27.5551 27.7754 27.6687 27.6687L37.1687 18.1687C37.2779 18.0596 37.4074 17.973 37.5501 17.9139C37.6927 17.8548 37.8456 17.8244 37.9999 17.8244C38.1543 17.8244 38.3072 17.8548 38.4498 17.9139C38.5924 17.973 38.722 18.0596 38.8312 18.1687C38.9404 18.2779 39.0269 18.4075 39.086 18.5501C39.1451 18.6928 39.1755 18.8456 39.1755 19C39.1755 19.1544 39.1451 19.3072 39.086 19.4499C39.0269 19.5925 38.9404 19.7221 38.8312 19.8312L29.3312 29.3312C29.2252 29.4453 29.0964 29.536 28.9533 29.5973C28.8101 29.6587 28.6557 29.6894 28.4999 29.6875V29.6875Z" fill="#95E1D3"/>
</svg>
