<svg width="44" height="49" viewBox="0 0 44 49" fill="none" xmlns="http://www.w3.org/2000/svg">
<path d="M21.7232 32.9629C20.4032 32.9688 19.1006 32.649 17.9223 32.0298C16.7441 31.4106 15.7236 30.5097 14.9448 29.4009L9.51656 32.6444C9.72312 32.8921 9.96766 33.1025 10.2403 33.267L19.8998 39.0588C20.4644 39.3588 21.0892 39.5152 21.7232 39.5152C22.3571 39.5152 22.9819 39.3588 23.5465 39.0588L33.206 33.267C33.4787 33.1025 33.7232 32.8921 33.9298 32.6444L28.5155 29.343C27.7412 30.4645 26.7213 31.3778 25.5401 32.0073C24.3589 32.6368 23.0504 32.9645 21.7232 32.9629Z" fill="#414042"/>
<path d="M13.2242 24.2224C13.2291 22.1632 14.0295 20.178 15.4722 18.6461C16.915 17.1142 18.899 16.1432 21.045 15.9186V9.67688C20.7195 9.74144 20.4062 9.85347 20.1164 10.009L10.0465 15.5449C9.4992 15.8942 9.04409 16.3595 8.71689 16.9046C8.38961 17.4497 8.19912 18.0595 8.16026 18.6865V29.7583C8.16474 30.0777 8.21845 30.3949 8.31983 30.6994L13.9788 27.5855C13.4839 26.527 13.2269 25.3814 13.2242 24.2224Z" fill="#414042"/>
<path d="M33.4991 15.5411L23.9592 10.0088C23.6847 9.85333 23.388 9.74137 23.0795 9.67688V15.9006C24.3755 16.0484 25.6189 16.5002 26.7097 17.2198C27.8004 17.9394 28.7079 18.9066 29.3592 20.0436C30.0105 21.1806 30.3873 22.4556 30.4593 23.7659C30.5313 25.0762 30.2966 26.3852 29.7738 27.5875L35.1349 30.6994C35.231 30.395 35.2819 30.0781 35.2861 29.7589V18.6945C35.2514 18.0655 35.0719 17.4532 34.7617 16.906C34.4516 16.3587 34.0194 15.8915 33.4991 15.5411Z" fill="#414042"/>
<path d="M40.4479 9.99625L24.6992 0.888213C23.7757 0.424294 22.7565 0.182739 21.7232 0.182739C20.6898 0.182739 19.6708 0.424294 18.7472 0.888213L2.9985 9.99625C2.13406 10.5602 1.41435 11.3198 0.897331 12.2137C0.38038 13.1075 0.0807069 14.1106 0.022522 15.1418V33.3578C0.0796218 34.3912 0.378753 35.3967 0.895703 36.293C1.41265 37.1894 2.13298 37.9514 2.9985 38.5176L18.7472 47.6258C19.6708 48.0897 20.6898 48.3311 21.7232 48.3311C22.7565 48.3311 23.7757 48.0897 24.6992 47.6258L40.4479 38.5176C41.3134 37.9514 42.0337 37.1894 42.5507 36.293C43.0676 35.3967 43.3667 34.3912 43.4238 33.3578V15.1418C43.3657 14.1106 43.066 13.1075 42.549 12.2137C42.032 11.3198 41.3123 10.5602 40.4479 9.99625ZM38.4258 31.2625C38.3796 32.0564 38.1481 32.8283 37.75 33.5164C37.3519 34.2046 36.7982 34.7897 36.1333 35.225L24.0014 42.2377C23.2928 42.596 22.51 42.7827 21.7161 42.7827C20.9222 42.7827 20.1393 42.596 19.4307 42.2377L7.31306 35.225C6.64814 34.7897 6.09443 34.2046 5.69636 33.5164C5.29822 32.8283 5.06677 32.0564 5.02052 31.2625V17.2513C5.06677 16.4574 5.29822 15.6855 5.69636 14.9974C6.09443 14.3092 6.64814 13.724 7.31306 13.2888L19.4164 6.27608C20.1251 5.91782 20.9078 5.73112 21.7018 5.73112C22.4957 5.73112 23.2786 5.91782 23.9872 6.27608L36.1191 13.2888C36.7866 13.7225 37.3431 14.307 37.7438 14.9952C38.1444 15.6834 38.378 16.4562 38.4258 17.2513V31.2625Z" fill="#414042"/>
<path d="M15.6199 24.2569C15.6199 25.3969 15.9778 26.5114 16.6484 27.4593C17.319 28.4073 18.2723 29.1461 19.3876 29.5824C20.5028 30.0186 21.73 30.1328 22.9139 29.9104C24.0978 29.688 25.1853 29.139 26.0388 28.3328C26.8924 27.5267 27.4737 26.4996 27.7092 25.3815C27.9447 24.2633 27.8239 23.1043 27.3619 22.051C26.8999 20.9977 26.1178 20.0975 25.114 19.4641C24.1104 18.8307 22.9303 18.4927 21.7232 18.4927C20.1045 18.4927 18.5521 19.1 17.4075 20.181C16.2629 21.262 15.6199 22.7282 15.6199 24.2569Z" fill="#414042"/>
</svg>
