<svg width="60" height="61" viewBox="0 0 60 61" fill="none" xmlns="http://www.w3.org/2000/svg">
<path d="M25.5701 44.0837C25.3197 44.0886 25.0735 44.0188 24.8628 43.8832C24.6522 43.7477 24.4867 43.5525 24.3875 43.3225C24.2882 43.0925 24.2597 42.8382 24.3055 42.5919C24.3513 42.3457 24.4695 42.1187 24.6448 41.9398C24.8202 41.7609 25.0448 41.6383 25.2901 41.5876C25.5354 41.5369 25.7903 41.5604 26.0222 41.6551C26.2541 41.7498 26.4525 41.9114 26.5922 42.1193C26.7319 42.3272 26.8066 42.572 26.8066 42.8225C26.8067 43.1527 26.6772 43.4698 26.446 43.7056C26.2148 43.9415 25.9003 44.0772 25.5701 44.0837V44.0837Z" fill="#95E1D3"/>
<path d="M34.6458 44.0837C35.3287 44.0837 35.8823 43.5301 35.8823 42.8472C35.8823 42.1644 35.3287 41.6108 34.6458 41.6108C33.9629 41.6108 33.4093 42.1644 33.4093 42.8472C33.4093 43.5301 33.9629 44.0837 34.6458 44.0837Z" fill="#95E1D3"/>
<path d="M35.2888 53.8023H24.0616C21.1496 53.8023 18.3569 52.6455 16.2977 50.5864C14.2386 48.5273 13.0818 45.7345 13.0818 42.8225C13.0818 39.9104 14.2386 37.1177 16.2977 35.0586C18.3569 32.9995 21.1496 31.8427 24.0616 31.8427H35.2888C38.2008 31.8427 40.9936 32.9995 43.0527 35.0586C45.1118 37.1177 46.2686 39.9104 46.2686 42.8225C46.2686 45.7345 45.1118 48.5273 43.0527 50.5864C40.9936 52.6455 38.2008 53.8023 35.2888 53.8023V53.8023ZM24.0616 34.3156C22.9445 34.3156 21.8383 34.5356 20.8062 34.9631C19.7741 35.3906 18.8363 36.0173 18.0464 36.8072C17.2564 37.5971 16.6298 38.5349 16.2023 39.567C15.7748 40.5991 15.5548 41.7053 15.5548 42.8225C15.5548 43.9396 15.7748 45.0458 16.2023 46.0779C16.6298 47.11 17.2564 48.0478 18.0464 48.8378C18.8363 49.6277 19.7741 50.2543 20.8062 50.6818C21.8383 51.1093 22.9445 51.3294 24.0616 51.3294H35.2888C37.5449 51.3294 39.7087 50.4331 41.3041 48.8378C42.8994 47.2424 43.7957 45.0786 43.7957 42.8225C43.7957 40.5663 42.8994 38.4025 41.3041 36.8072C39.7087 35.2118 37.5449 34.3156 35.2888 34.3156H24.0616Z" fill="#95E1D3"/>
<path d="M49.4587 37.9261H42.8312C42.5033 37.9261 42.1888 37.7958 41.9569 37.5639C41.725 37.3321 41.5947 37.0176 41.5947 36.6896C41.5947 36.3617 41.725 36.0472 41.9569 35.8153C42.1888 35.5834 42.5033 35.4532 42.8312 35.4532H49.4587C50.6503 35.4467 51.7914 34.9704 52.634 34.1277C53.4767 33.2851 53.9529 32.1441 53.9594 30.9524C53.9529 25.2396 51.6823 19.7622 47.645 15.7203C43.6077 11.6784 38.133 9.40151 32.4202 9.38842H27.2023C21.4852 9.39497 16.0041 11.669 11.9615 15.7116C7.91884 19.7542 5.64483 25.2353 5.63828 30.9524C5.64478 32.1441 6.12105 33.2851 6.9637 34.1277C7.80634 34.9704 8.94736 35.4467 10.139 35.4532H16.5192C16.8471 35.4532 17.1616 35.5834 17.3935 35.8153C17.6254 36.0472 17.7557 36.3617 17.7557 36.6896C17.7557 37.0176 17.6254 37.3321 17.3935 37.5639C17.1616 37.7958 16.8471 37.9261 16.5192 37.9261H10.0154C8.16584 37.9261 6.39206 37.1914 5.08424 35.8835C3.77643 34.5757 3.0417 32.8019 3.0417 30.9524C3.04493 27.7863 3.67297 24.652 4.88981 21.7291C6.10666 18.8062 7.88839 16.1522 10.1329 13.9192C12.3774 11.6862 15.0405 9.91809 17.9696 8.71625C20.8987 7.51442 24.0362 6.90247 27.2023 6.91549H32.4202C38.7846 6.92856 44.8846 9.4626 49.3849 13.9629C53.8852 18.4633 56.4193 24.5633 56.4324 30.9277C56.4324 32.7795 55.6984 34.5558 54.3913 35.8676C53.0842 37.1793 51.3105 37.9195 49.4587 37.9261V37.9261Z" fill="#95E1D3"/>
<path d="M7.8392 31.1749C6.48874 31.1539 5.15452 30.877 3.90724 30.3589C3.75613 30.2989 3.61834 30.2098 3.50174 30.0965C3.38513 29.9832 3.29201 29.8481 3.2277 29.6988C3.16338 29.5495 3.12914 29.3889 3.12693 29.2264C3.12472 29.0639 3.15458 28.9025 3.21481 28.7515C3.26929 28.5991 3.35434 28.4596 3.46472 28.3413C3.57511 28.223 3.7085 28.1285 3.85672 28.0637C4.00494 27.9989 4.16485 27.965 4.32663 27.9642C4.48841 27.9634 4.64864 27.9957 4.79749 28.0591C5.7687 28.4309 6.79926 28.6236 7.8392 28.6278C9.54646 28.6158 11.2055 28.0604 12.576 27.0422C13.9464 26.0239 14.9569 24.5957 15.4612 22.9646C15.9654 21.3334 15.9371 19.5841 15.3803 17.9701C14.8236 16.3562 13.7673 14.9614 12.3647 13.9881C12.1367 13.789 11.9897 13.5133 11.9514 13.2132C11.9131 12.913 11.9862 12.6092 12.1568 12.3593C12.3275 12.1095 12.5838 11.9308 12.8774 11.8573C13.1709 11.7837 13.4812 11.8204 13.7495 11.9602C15.6124 13.2207 17.0218 15.0455 17.7705 17.1664C18.5192 19.2873 18.5678 21.5925 17.909 23.7431C17.2503 25.8937 15.919 27.7762 14.1109 29.1139C12.3027 30.4517 10.1131 31.1741 7.86393 31.1749H7.8392Z" fill="#95E1D3"/>
<path d="M55.0475 31.1255C51.1832 30.8331 47.571 29.0952 44.931 26.2581C42.2911 23.4211 40.8173 19.6933 40.8034 15.818C40.7982 13.949 41.1421 12.0955 41.8173 10.3528C41.8773 10.2017 41.9664 10.0639 42.0797 9.94731C42.193 9.8307 42.3281 9.73758 42.4774 9.67327C42.6267 9.60895 42.7872 9.57471 42.9498 9.5725C43.1123 9.57029 43.2737 9.60016 43.4247 9.66039C43.5771 9.71487 43.7166 9.79991 43.8349 9.91029C43.9532 10.0207 44.0476 10.1541 44.1125 10.3023C44.1773 10.4505 44.2112 10.6104 44.212 10.7722C44.2128 10.934 44.1805 11.0942 44.1171 11.2431C43.4276 13.1073 43.1787 15.1059 43.3899 17.0824C43.6012 19.0588 44.267 20.9596 45.3351 22.636C46.4031 24.3123 47.8446 25.7189 49.5467 26.7455C51.2488 27.7721 53.1654 28.3909 55.1464 28.5536C55.4744 28.5536 55.7889 28.6839 56.0207 28.9158C56.2526 29.1476 56.3829 29.4621 56.3829 29.7901C56.3829 30.118 56.2526 30.4325 56.0207 30.6644C55.7889 30.8963 55.4744 31.0265 55.1464 31.0265L55.0475 31.1255Z" fill="#95E1D3"/>
</svg>
