<svg width="57" height="57" viewBox="0 0 57 57" fill="none" xmlns="http://www.w3.org/2000/svg">
<path d="M24.5575 41.6812C24.317 41.686 24.0805 41.6189 23.8782 41.4888C23.6759 41.3586 23.517 41.1711 23.4217 40.9502C23.3263 40.7293 23.2989 40.4851 23.343 40.2486C23.387 40.0121 23.5004 39.794 23.6688 39.6223C23.8373 39.4505 24.053 39.3327 24.2886 39.284C24.5242 39.2354 24.7689 39.2579 24.9916 39.3488C25.2143 39.4398 25.4049 39.595 25.5391 39.7947C25.6733 39.9943 25.745 40.2294 25.745 40.47C25.7451 40.7872 25.6207 41.0917 25.3987 41.3182C25.1766 41.5447 24.8746 41.675 24.5575 41.6812V41.6812Z" fill="#95E1D3"/>
<path d="M33.2738 41.6812C33.9296 41.6812 34.4613 41.1496 34.4613 40.4937C34.4613 39.8379 33.9296 39.3062 33.2738 39.3062C32.618 39.3062 32.0863 39.8379 32.0863 40.4937C32.0863 41.1496 32.618 41.6812 33.2738 41.6812Z" fill="#95E1D3"/>
<path d="M33.8912 51.015H23.1087C20.312 51.015 17.6299 49.904 15.6523 47.9264C13.6747 45.9489 12.5637 43.2667 12.5637 40.47C12.5637 37.6733 13.6747 34.9911 15.6523 33.0135C17.6299 31.036 20.312 29.925 23.1087 29.925H33.8912C36.6879 29.925 39.3701 31.036 41.3477 33.0135C43.3252 34.9911 44.4362 37.6733 44.4362 40.47C44.4362 43.2667 43.3252 45.9489 41.3477 47.9264C39.3701 49.904 36.6879 51.015 33.8912 51.015V51.015ZM23.1087 32.3C22.0358 32.3 20.9734 32.5113 19.9822 32.9219C18.991 33.3325 18.0903 33.9343 17.3317 34.6929C16.573 35.4516 15.9712 36.3522 15.5606 37.3435C15.15 38.3347 14.9387 39.3971 14.9387 40.47C14.9387 41.5429 15.15 42.6053 15.5606 43.5965C15.9712 44.5877 16.573 45.4884 17.3317 46.247C18.0903 47.0057 18.991 47.6075 19.9822 48.0181C20.9734 48.4287 22.0358 48.64 23.1087 48.64H33.8912C36.058 48.64 38.1361 47.7792 39.6683 46.247C41.2005 44.7149 42.0612 42.6368 42.0612 40.47C42.0612 38.3032 41.2005 36.2251 39.6683 34.6929C38.1361 33.1608 36.058 32.3 33.8912 32.3H23.1087Z" fill="#95E1D3"/>
<path d="M47.5 35.7675H41.135C40.8201 35.7675 40.518 35.6424 40.2953 35.4197C40.0726 35.197 39.9475 34.8949 39.9475 34.58C39.9475 34.2651 40.0726 33.963 40.2953 33.7403C40.518 33.5176 40.8201 33.3925 41.135 33.3925H47.5C48.6445 33.3863 49.7403 32.9289 50.5496 32.1196C51.3589 31.3103 51.8163 30.2145 51.8225 29.07C51.8162 23.5834 49.6355 18.323 45.7582 14.4411C41.8808 10.5593 36.6228 8.37256 31.1363 8.36H26.125C20.6343 8.36628 15.3703 10.5502 11.4878 14.4328C7.60526 18.3153 5.4213 23.5793 5.41501 29.07C5.42125 30.2145 5.87866 31.3103 6.68794 32.1196C7.49721 32.9289 8.59304 33.3863 9.73751 33.3925H15.865C16.18 33.3925 16.482 33.5176 16.7047 33.7403C16.9274 33.963 17.0525 34.2651 17.0525 34.58C17.0525 34.8949 16.9274 35.197 16.7047 35.4197C16.482 35.6424 16.18 35.7675 15.865 35.7675H9.61877C7.84248 35.7675 6.13894 35.0619 4.88292 33.8058C3.62689 32.5498 2.92126 30.8463 2.92126 29.07C2.92436 26.0293 3.52753 23.0191 4.69619 20.212C5.86484 17.4048 7.57602 14.8559 9.73162 12.7113C11.8872 10.5668 14.4449 8.86869 17.258 7.71445C20.0711 6.56021 23.0843 5.9725 26.125 5.985H31.1363C37.2486 5.99755 43.1071 8.43124 47.4292 12.7533C51.7513 17.0755 54.185 22.9339 54.1975 29.0462C54.1975 30.8247 53.4927 32.5307 52.2373 33.7905C50.982 35.0503 49.2785 35.7612 47.5 35.7675V35.7675Z" fill="#95E1D3"/>
<path d="M7.52881 29.2838C6.23184 29.2636 4.95045 28.9976 3.75256 28.5C3.60745 28.4424 3.47511 28.3568 3.36312 28.248C3.25114 28.1392 3.1617 28.0094 3.09994 27.866C3.03817 27.7226 3.00528 27.5685 3.00316 27.4124C3.00104 27.2563 3.02972 27.1013 3.08756 26.9563C3.13989 26.81 3.22156 26.6759 3.32758 26.5623C3.43359 26.4487 3.5617 26.358 3.70405 26.2957C3.8464 26.2334 3.99997 26.2009 4.15535 26.2002C4.31072 26.1994 4.46461 26.2304 4.60756 26.2913C5.54031 26.6484 6.53006 26.8334 7.52881 26.8375C9.16846 26.826 10.7618 26.2926 12.078 25.3147C13.3941 24.3367 14.3647 22.9651 14.8489 21.3986C15.3332 19.832 15.306 18.1519 14.7713 16.6019C14.2366 15.0518 13.2222 13.7123 11.8751 12.7775C11.6562 12.5864 11.5149 12.3216 11.4781 12.0333C11.4414 11.745 11.5116 11.4533 11.6755 11.2133C11.8394 10.9733 12.0856 10.8017 12.3675 10.7311C12.6494 10.6605 12.9474 10.6957 13.2051 10.83C14.9942 12.0405 16.3477 13.793 17.0668 15.83C17.7859 17.8669 17.8325 20.0808 17.1999 22.1462C16.5672 24.2116 15.2887 26.0196 13.5521 27.3044C11.8156 28.5891 9.7127 29.2829 7.55256 29.2838H7.52881Z" fill="#95E1D3"/>
<path d="M52.8676 29.2363C49.1563 28.9555 45.6871 27.2864 43.1517 24.5617C40.6163 21.837 39.2008 18.2569 39.1876 14.535C39.1826 12.7401 39.5128 10.96 40.1613 9.28626C40.2189 9.14114 40.3045 9.0088 40.4133 8.89682C40.5221 8.78483 40.6519 8.6954 40.7953 8.63363C40.9387 8.57186 41.0928 8.53898 41.2489 8.53685C41.405 8.53473 41.56 8.56341 41.7051 8.62126C41.8514 8.67358 41.9854 8.75525 42.099 8.86127C42.2126 8.96728 42.3033 9.0954 42.3656 9.23774C42.4279 9.38009 42.4604 9.53367 42.4612 9.68904C42.4619 9.84441 42.4309 9.9983 42.3701 10.1413C41.7078 11.9317 41.4687 13.8511 41.6717 15.7493C41.8746 17.6475 42.5139 19.473 43.5397 21.083C44.5655 22.693 45.9499 24.0438 47.5846 25.0297C49.2193 26.0157 51.06 26.61 52.9626 26.7663C53.2775 26.7663 53.5795 26.8914 53.8022 27.1141C54.0249 27.3368 54.1501 27.6388 54.1501 27.9538C54.1501 28.2687 54.0249 28.5707 53.8022 28.7934C53.5795 29.0161 53.2775 29.1413 52.9626 29.1413L52.8676 29.2363Z" fill="#95E1D3"/>
</svg>
