<svg width="37" height="36" viewBox="0 0 37 36" fill="none" xmlns="http://www.w3.org/2000/svg">
<path d="M18.2526 33.475C17.7129 33.4762 17.1795 33.3599 16.6897 33.1343C16.2 32.9087 15.7658 32.5794 15.4176 32.1693L14.1045 30.6856C13.8816 30.425 13.6017 30.2186 13.2861 30.0823C12.9706 29.946 12.6278 29.8834 12.2842 29.8992L10.2848 30.0772C9.74561 30.122 9.20314 30.0496 8.69494 29.865C8.18675 29.6805 7.72501 29.3882 7.34175 29.0085C6.95848 28.6288 6.66286 28.1707 6.47539 27.666C6.28792 27.1614 6.21308 26.6222 6.25607 26.0859L6.31576 24.0532C6.34354 23.7014 6.28624 23.3481 6.14866 23.0229C6.01109 22.6976 5.79722 22.4099 5.52494 22.1836L4.03284 20.8927C3.6185 20.5459 3.28542 20.1133 3.05692 19.625C2.82842 19.1368 2.71002 18.6047 2.71002 18.0662C2.71002 17.5276 2.82842 16.9956 3.05692 16.5074C3.28542 16.0191 3.6185 15.5864 4.03284 15.2396L5.52494 13.9339C5.79112 13.7091 6.00112 13.4259 6.13836 13.1066C6.27561 12.7873 6.33634 12.4407 6.31576 12.094L6.16655 10.0613C6.12156 9.52516 6.19438 8.98572 6.37996 8.48037C6.56555 7.97502 6.85946 7.51586 7.24131 7.13474C7.62315 6.75361 8.0838 6.45965 8.5913 6.27323C9.0988 6.0868 9.641 6.01239 10.1803 6.05514L12.1947 6.159C12.5435 6.1938 12.8956 6.14607 13.2224 6.01972C13.5491 5.89336 13.8412 5.69196 14.0747 5.43196L15.3728 3.9482C15.7208 3.52228 16.1598 3.17878 16.6579 2.94266C17.156 2.70654 17.7008 2.58373 18.2526 2.58314C18.7923 2.58202 19.3257 2.69832 19.8155 2.92387C20.3052 3.14943 20.7394 3.47879 21.0876 3.88885L22.4007 5.37261C22.625 5.63148 22.9052 5.83665 23.2204 5.97281C23.5356 6.10898 23.8776 6.17262 24.221 6.159L26.2204 5.98095C26.7596 5.93621 27.3021 6.00862 27.8103 6.19317C28.3184 6.37772 28.7802 6.66999 29.1635 7.0497C29.5467 7.42941 29.8423 7.88748 30.0298 8.39214C30.2173 8.8968 30.2921 9.43598 30.2491 9.97227L30.1894 12.005C30.1617 12.3568 30.219 12.71 30.3565 13.0353C30.4941 13.3605 30.708 13.6483 30.9803 13.8746L32.4724 15.1654C32.8867 15.5122 33.2198 15.9449 33.4483 16.4332C33.6768 16.9214 33.7952 17.4535 33.7952 17.992C33.7952 18.5305 33.6768 19.0626 33.4483 19.5508C33.2198 20.0391 32.8867 20.4718 32.4724 20.8186L30.9803 22.1243C30.7141 22.349 30.5041 22.6322 30.3668 22.9515C30.2296 23.2708 30.1689 23.6175 30.1894 23.9641L30.3685 25.9672C30.4135 26.5033 30.3407 27.0428 30.1551 27.5481C29.9695 28.0535 29.6756 28.5126 29.2937 28.8938C28.9119 29.2749 28.4512 29.5689 27.9437 29.7553C27.4362 29.9417 26.894 30.0161 26.3547 29.9734L24.3105 29.8992C23.9569 29.8728 23.6021 29.9303 23.2752 30.067C22.9483 30.2038 22.6588 30.4158 22.4305 30.6856L21.1324 32.1693C20.7849 32.5813 20.3512 32.9129 19.8616 33.141C19.3719 33.3691 18.8381 33.4882 18.2974 33.4899L18.2526 33.475ZM12.4334 28.4154C12.9731 28.4143 13.5065 28.5306 13.9963 28.7561C14.486 28.9817 14.9202 29.3111 15.2684 29.7211L16.5814 31.2049C16.7889 31.4529 17.049 31.652 17.3431 31.788C17.6373 31.924 17.9581 31.9934 18.2824 31.9913C18.6082 31.9886 18.9296 31.9171 19.2254 31.7816C19.5213 31.646 19.7847 31.4494 19.9984 31.2049L21.2965 29.7211C21.6727 29.2665 22.1546 28.9101 22.7007 28.6825C23.2467 28.455 23.8402 28.3633 24.4299 28.4154L26.4443 28.5638C26.7669 28.5934 27.0921 28.5515 27.3966 28.4412C27.701 28.3309 27.9771 28.1548 28.2049 27.9258C28.434 27.6951 28.6099 27.4178 28.7207 27.113C28.8315 26.8081 28.8744 26.483 28.8465 26.1601L28.6973 24.1273C28.6428 23.5414 28.7309 22.951 28.9542 22.406C29.1776 21.8611 29.5296 21.3777 29.9805 20.9966L31.4727 19.6909C31.7236 19.4907 31.9273 19.2381 32.0691 18.9509C32.2109 18.6637 32.2875 18.349 32.2933 18.0291C32.2906 17.7052 32.2188 17.3855 32.0824 17.0914C31.9461 16.7972 31.7484 16.5352 31.5025 16.3228L30.0104 15.0319C29.5499 14.6541 29.1894 14.1698 28.9605 13.6215C28.7316 13.0731 28.6413 12.4774 28.6973 11.8863L28.8465 9.88324C28.8752 9.56248 28.8326 9.23936 28.7218 8.93679C28.6109 8.63422 28.4344 8.3596 28.2049 8.1324C27.9736 7.90384 27.6948 7.72832 27.3881 7.61811C27.0814 7.5079 26.7542 7.46567 26.4293 7.49439L24.3852 7.64276C23.7956 7.70086 23.2006 7.615 22.652 7.39263C22.1034 7.17026 21.6176 6.8181 21.2368 6.36673L19.9238 4.88297C19.7224 4.63338 19.4684 4.43089 19.1796 4.28986C18.8908 4.14883 18.5743 4.07271 18.2526 4.0669C17.9269 4.06955 17.6054 4.14103 17.3096 4.27661C17.0138 4.41218 16.7503 4.60876 16.5367 4.85329L15.2385 6.33705C14.8578 6.79402 14.3707 7.15176 13.8195 7.37928C13.2682 7.6068 12.6696 7.69724 12.0753 7.64276L10.0609 7.49439C9.73837 7.46585 9.41344 7.50821 9.10917 7.61847C8.8049 7.72873 8.52874 7.90418 8.30026 8.1324C8.06514 8.36803 7.88562 8.65266 7.77466 8.96572C7.6637 9.27878 7.62407 9.61244 7.65865 9.94259L7.80786 11.9308C7.86245 12.5168 7.77433 13.1072 7.55098 13.6521C7.32762 14.1971 6.97559 14.6805 6.52465 15.0616L5.03255 16.3673C4.78156 16.5675 4.57793 16.8201 4.43611 17.1073C4.29429 17.3945 4.21774 17.7092 4.21189 18.0291C4.21455 18.353 4.28644 18.6726 4.42278 18.9668C4.55912 19.261 4.7568 19.523 5.00271 19.7354L6.49481 21.0263C6.95535 21.4041 7.31581 21.8884 7.54471 22.4367C7.7736 22.985 7.86395 23.5808 7.80786 24.1719L7.65865 26.1749C7.62996 26.4957 7.67256 26.8188 7.78343 27.1214C7.89431 27.424 8.07076 27.6986 8.30026 27.9258C8.53161 28.1543 8.81039 28.3299 9.1171 28.4401C9.42381 28.5503 9.75103 28.5925 10.0759 28.5638L12.12 28.4154H12.4334Z" fill="#95E1D3"/>
<path d="M18.2526 23.2223C16.8676 23.2223 15.5392 22.6751 14.5598 21.7012C13.5805 20.7273 13.0302 19.4064 13.0302 18.0291C13.0302 16.6518 13.5805 15.3309 14.5598 14.357C15.5392 13.3831 16.8676 12.8359 18.2526 12.8359C19.6377 12.8359 20.966 13.3831 21.9454 14.357C22.9248 15.3309 23.475 16.6518 23.475 18.0291C23.475 19.4064 22.9248 20.7273 21.9454 21.7012C20.966 22.6751 19.6377 23.2223 18.2526 23.2223ZM18.2526 14.3197C17.2633 14.3197 16.3145 14.7105 15.6149 15.4062C14.9154 16.1018 14.5223 17.0453 14.5223 18.0291C14.5223 19.0129 14.9154 19.9564 15.6149 20.652C16.3145 21.3477 17.2633 21.7385 18.2526 21.7385C19.2419 21.7385 20.1907 21.3477 20.8903 20.652C21.5899 19.9564 21.9829 19.0129 21.9829 18.0291C21.9829 17.0453 21.5899 16.1018 20.8903 15.4062C20.1907 14.7105 19.2419 14.3197 18.2526 14.3197Z" fill="#95E1D3"/>
</svg>
