<svg width="37" height="37" viewBox="0 0 37 37" fill="none" xmlns="http://www.w3.org/2000/svg">
<path d="M18.2526 33.8121C15.21 33.8121 12.2357 32.9149 9.70593 31.234C7.17611 29.5531 5.20435 27.1639 4.04 24.3687C2.87565 21.5734 2.57101 18.4976 3.16459 15.5301C3.75817 12.5627 5.22331 9.83692 7.37475 7.69751C9.52618 5.55811 12.2673 4.10116 15.2514 3.51089C18.2355 2.92063 21.3287 3.22358 24.1397 4.38141C26.9506 5.53925 29.3532 7.49998 31.0436 10.0157C32.734 12.5313 33.6362 15.489 33.6362 18.5145C33.6323 22.5705 32.0102 26.4592 29.1261 29.3272C26.242 32.1952 22.3314 33.8082 18.2526 33.8121V33.8121ZM18.2526 4.70072C15.5051 4.70072 12.8193 5.51088 10.5349 7.02876C8.25045 8.54665 6.46994 10.7041 5.41853 13.2282C4.36711 15.7524 4.09202 18.5299 4.62802 21.2095C5.16403 23.8891 6.48707 26.3505 8.42983 28.2824C10.3726 30.2143 12.8478 31.5299 15.5425 32.0629C18.2372 32.5959 21.0303 32.3224 23.5686 31.2768C26.107 30.2313 28.2765 28.4607 29.803 26.1891C31.3294 23.9174 32.1441 21.2466 32.1441 18.5145C32.1362 14.8533 30.6701 11.3442 28.0667 8.75535C25.4632 6.16645 21.9344 4.70856 18.2526 4.70072Z" fill="#95E1D3"/>
<path d="M12.4483 24.4496C11.6368 24.4496 10.8434 24.2103 10.1687 23.7619C9.49388 23.3135 8.96795 22.6763 8.65738 21.9307C8.34681 21.1851 8.26555 20.3647 8.42388 19.5732C8.5822 18.7817 8.973 18.0546 9.54686 17.484C10.1207 16.9133 10.8519 16.5247 11.6478 16.3673C12.4438 16.2098 13.2688 16.2906 14.0186 16.5995C14.7684 16.9083 15.4092 17.4313 15.8601 18.1023C16.311 18.7733 16.5516 19.5622 16.5516 20.3692C16.5516 20.9051 16.4455 21.4357 16.2393 21.9307C16.0331 22.4258 15.7308 22.8756 15.3498 23.2545C14.9688 23.6334 14.5164 23.9339 14.0186 24.139C13.5208 24.344 12.9872 24.4496 12.4483 24.4496V24.4496ZM12.4483 17.7726C11.9287 17.7729 11.421 17.9272 10.9902 18.2159C10.5593 18.5047 10.2248 18.9147 10.0296 19.3935C9.83434 19.8723 9.78717 20.3981 9.89412 20.9037C10.0011 21.4093 10.2573 21.8717 10.63 22.2317C11.0026 22.5917 11.4748 22.833 11.9862 22.9246C12.4975 23.0163 13.0247 22.9542 13.5004 22.7462C13.976 22.5382 14.3784 22.1939 14.6562 21.7573C14.9339 21.3206 15.0744 20.8115 15.0595 20.295C15.0556 19.6076 14.7792 18.9494 14.2904 18.4633C13.8015 17.9772 13.1396 17.7023 12.4483 17.6985V17.7726Z" fill="#95E1D3"/>
<path d="M24.0569 24.4496C23.2454 24.4496 22.452 24.2103 21.7772 23.7619C21.1025 23.3135 20.5765 22.6763 20.266 21.9307C19.9554 21.1851 19.8741 20.3647 20.0325 19.5732C20.1908 18.7817 20.5816 18.0546 21.1554 17.484C21.7293 16.9133 22.4604 16.5247 23.2564 16.3673C24.0524 16.2098 24.8774 16.2906 25.6272 16.5995C26.3769 16.9083 27.0178 17.4313 27.4687 18.1023C27.9195 18.7733 28.1602 19.5622 28.1602 20.3692C28.1602 21.4514 27.7279 22.4892 26.9584 23.2545C26.1889 24.0197 25.1452 24.4496 24.0569 24.4496ZM24.0569 17.7726C23.5405 17.7726 23.0356 17.9249 22.6062 18.2102C22.1768 18.4956 21.8421 18.9011 21.6445 19.3756C21.4468 19.85 21.3951 20.3721 21.4959 20.8758C21.5966 21.3795 21.8453 21.8421 22.2105 22.2053C22.5757 22.5684 23.041 22.8157 23.5475 22.9159C24.054 23.0161 24.579 22.9647 25.0562 22.7682C25.5333 22.5716 25.9411 22.2388 26.228 21.8118C26.5149 21.3848 26.6681 20.8828 26.6681 20.3692C26.6781 20.022 26.6179 19.6764 26.4912 19.3528C26.3644 19.0291 26.1736 18.734 25.9302 18.485C25.6867 18.236 25.3955 18.0381 25.0737 17.903C24.7519 17.7679 24.4062 17.6983 24.0569 17.6985V17.7726Z" fill="#95E1D3"/>
<path d="M3.95822 16.0812C3.78624 16.0812 3.61952 16.0221 3.48628 15.914C3.35305 15.8058 3.26149 15.6552 3.22709 15.4877C3.19146 15.2952 3.23217 15.0966 3.34067 14.9334C3.44916 14.7701 3.61702 14.655 3.80901 14.6122C3.97314 14.5826 20.1177 11.0957 24.4597 5.16069C24.5174 5.08161 24.5902 5.01463 24.674 4.9636C24.7578 4.91257 24.8508 4.8785 24.9479 4.86333C25.0449 4.84817 25.144 4.85221 25.2395 4.87523C25.335 4.89825 25.4249 4.93979 25.5042 4.99747C25.6616 5.11569 25.7667 5.29006 25.7973 5.48382C25.8279 5.67757 25.7817 5.87558 25.6684 6.03611C20.9831 12.4311 4.82364 15.918 4.12235 16.0663L3.95822 16.0812Z" fill="#95E1D3"/>
<path d="M28.6973 13.6181C25.0008 13.4955 21.3588 12.6957 17.9542 11.2589C17.7721 11.1802 17.629 11.0328 17.5562 10.8492C17.4835 10.6655 17.4871 10.4607 17.5662 10.2797C17.6454 10.0986 17.7936 9.95629 17.9783 9.88395C18.163 9.8116 18.369 9.81517 18.551 9.89387C18.6256 9.89387 25.6236 12.9949 31.5025 11.897C31.6981 11.862 31.8997 11.9045 32.0642 12.0154C32.2287 12.1263 32.3431 12.2968 32.3828 12.4905C32.4177 12.6832 32.3745 12.8818 32.2627 13.043C32.1509 13.2043 31.9795 13.315 31.786 13.351C30.7675 13.539 29.7331 13.6285 28.6973 13.6181V13.6181Z" fill="#95E1D3"/>
<path d="M20.6997 21.0369H15.8056C15.6077 21.0369 15.4179 20.9588 15.278 20.8196C15.1381 20.6805 15.0595 20.4918 15.0595 20.295C15.0633 20.0995 15.1432 19.913 15.2823 19.7747C15.4213 19.6363 15.6089 19.557 15.8056 19.5532H20.6997C20.8963 19.557 21.0839 19.6363 21.223 19.7747C21.3621 19.913 21.4419 20.0995 21.4457 20.295C21.4457 20.4918 21.3671 20.6805 21.2272 20.8196C21.0873 20.9588 20.8975 21.0369 20.6997 21.0369Z" fill="#95E1D3"/>
<path d="M9.09108 21.0369H3.73443C3.53656 21.0369 3.3468 20.9588 3.20689 20.8196C3.06697 20.6805 2.98837 20.4918 2.98837 20.295C2.99219 20.0995 3.07202 19.913 3.21111 19.7747C3.35021 19.6363 3.53776 19.557 3.73443 19.5532H9.09108C9.28895 19.5532 9.47871 19.6313 9.61862 19.7705C9.75853 19.9096 9.83714 20.0983 9.83714 20.295C9.83714 20.4918 9.75853 20.6805 9.61862 20.8196C9.47871 20.9588 9.28895 21.0369 9.09108 21.0369Z" fill="#95E1D3"/>
<path d="M32.7857 21.0369H27.4141C27.2163 21.0369 27.0265 20.9588 26.8866 20.8196C26.7467 20.6805 26.6681 20.4918 26.6681 20.295C26.6681 20.0983 26.7467 19.9096 26.8866 19.7705C27.0265 19.6313 27.2163 19.5532 27.4141 19.5532H32.7857C32.9836 19.5532 33.1733 19.6313 33.3133 19.7705C33.4532 19.9096 33.5318 20.0983 33.5318 20.295C33.5318 20.4918 33.4532 20.6805 33.3133 20.8196C33.1733 20.9588 32.9836 21.0369 32.7857 21.0369Z" fill="#95E1D3"/>
</svg>
