<svg width="57" height="57" viewBox="0 0 57 57" fill="none" xmlns="http://www.w3.org/2000/svg">
<path d="M21.7312 26.125H9.85621C8.8021 26.125 7.79081 25.7079 7.04322 24.9647C6.29563 24.2216 5.87249 23.2128 5.86621 22.1587V10.2837C5.87244 9.22744 6.29482 8.21619 7.04174 7.46926C7.78866 6.72234 8.79992 6.29996 9.85621 6.29373H21.7312C22.7875 6.29996 23.7988 6.72234 24.5457 7.46926C25.2926 8.21619 25.715 9.22744 25.7212 10.2837V22.1587C25.7149 23.2128 25.2918 24.2216 24.5442 24.9647C23.7966 25.7079 22.7853 26.125 21.7312 26.125V26.125ZM9.85621 8.64498C9.4298 8.65112 9.02257 8.82324 8.72102 9.12479C8.41947 9.42634 8.24735 9.83357 8.24121 10.26V22.135C8.24121 22.5633 8.41136 22.9741 8.71423 23.277C9.0171 23.5798 9.42789 23.75 9.85621 23.75H21.7312C22.1595 23.75 22.5703 23.5798 22.8732 23.277C23.1761 22.9741 23.3462 22.5633 23.3462 22.135V10.26C23.3401 9.83357 23.168 9.42634 22.8664 9.12479C22.5649 8.82324 22.1576 8.65112 21.7312 8.64498H9.85621Z" fill="#95E1D3"/>
<path d="M47.1437 26.125H35.2687C34.2105 26.125 33.1956 25.7046 32.4473 24.9563C31.6991 24.2081 31.2787 23.1932 31.2787 22.135V10.26C31.2849 9.2037 31.7073 8.19244 32.4542 7.44552C33.2011 6.6986 34.2124 6.27622 35.2687 6.26999H47.1437C48.2 6.27622 49.2112 6.6986 49.9582 7.44552C50.7051 8.19244 51.1275 9.2037 51.1337 10.26V22.135C51.1337 23.1932 50.7133 24.2081 49.965 24.9563C49.2168 25.7046 48.2019 26.125 47.1437 26.125V26.125ZM35.2687 8.64499C34.8423 8.65113 34.435 8.82325 34.1335 9.1248C33.8319 9.42635 33.6598 9.83358 33.6537 10.26V22.135C33.6537 22.5633 33.8238 22.9741 34.1267 23.277C34.4296 23.5798 34.8404 23.75 35.2687 23.75H47.1437C47.572 23.75 47.9828 23.5798 48.2857 23.277C48.5885 22.9741 48.7587 22.5633 48.7587 22.135V10.26C48.7526 9.83358 48.5804 9.42635 48.2789 9.1248C47.9773 8.82325 47.5701 8.65113 47.1437 8.64499H35.2687Z" fill="#95E1D3"/>
<path d="M21.7312 50.7063H9.85621C8.79992 50.7 7.78866 50.2776 7.04174 49.5307C6.29482 48.7838 5.87244 47.7725 5.86621 46.7163V34.8413C5.87249 33.7872 6.29563 32.7784 7.04322 32.0352C7.79081 31.2921 8.8021 30.875 9.85621 30.875H21.7312C22.7894 30.875 23.8043 31.2954 24.5526 32.0436C25.3008 32.7919 25.7212 33.8068 25.7212 34.865V46.74C25.7088 47.7922 25.2837 48.7974 24.5374 49.5392C23.7911 50.281 22.7834 50.7001 21.7312 50.7063V50.7063ZM9.85621 33.25C9.42789 33.25 9.0171 33.4202 8.71423 33.723C8.41136 34.0259 8.24121 34.4367 8.24121 34.865V46.74C8.24735 47.1664 8.41947 47.5736 8.72102 47.8752C9.02257 48.1767 9.4298 48.3489 9.85621 48.355H21.7312C22.1576 48.3489 22.5649 48.1767 22.8664 47.8752C23.168 47.5736 23.3401 47.1664 23.3462 46.74V34.865C23.3462 34.4367 23.1761 34.0259 22.8732 33.723C22.5703 33.4202 22.1595 33.25 21.7312 33.25H9.85621Z" fill="#95E1D3"/>
<path d="M47.1437 50.7063H35.2687C34.2124 50.7 33.2011 50.2776 32.4542 49.5307C31.7073 48.7838 31.2849 47.7725 31.2787 46.7163V34.8413C31.285 33.7872 31.7081 32.7784 32.4557 32.0352C33.2033 31.2921 34.2146 30.875 35.2687 30.875H47.1437C48.2019 30.875 49.2168 31.2954 49.965 32.0436C50.7133 32.7919 51.1337 33.8068 51.1337 34.865V46.74C51.1213 47.7922 50.6961 48.7974 49.9499 49.5392C49.2036 50.281 48.1959 50.7001 47.1437 50.7063V50.7063ZM35.2687 33.2262C34.8404 33.2262 34.4296 33.3964 34.1267 33.6993C33.8238 34.0021 33.6537 34.4129 33.6537 34.8413V46.7163C33.6598 47.1427 33.8319 47.5499 34.1335 47.8514C34.435 48.153 34.8423 48.3251 35.2687 48.3313H47.1437C47.5701 48.3251 47.9773 48.153 48.2789 47.8514C48.5804 47.5499 48.7526 47.1427 48.7587 46.7163V34.8413C48.7587 34.4129 48.5885 34.0021 48.2857 33.6993C47.9828 33.3964 47.572 33.2262 47.1437 33.2262H35.2687Z" fill="#95E1D3"/>
</svg>
